<svg xmlns="http://www.w3.org/2000/svg" width="284" height="51" viewBox="0 0 284 51" fill="none"><path d="M30.9234 51H0.40336V0.109996H30.9234C45.7634 0.109996 56.5434 10.26 56.5434 25.03C56.5434 39.8 45.7634 51 30.9234 51ZM13.2834 38.05H30.9234C38.2034 38.05 43.5934 32.94 43.5934 25.66C43.5934 18.38 38.2034 12.99 30.9234 12.99H13.2834V38.05ZM75.8453 51H62.8953V0.109996H75.8453V51ZM139.593 51H107.883C93.1134 51 82.2634 39.8 82.2634 25.03C82.2634 10.05 93.1134 0.109996 107.883 0.109996H136.373V12.99H107.883C100.603 12.99 95.2134 18.38 95.2134 25.66C95.2134 32.94 100.463 38.05 107.883 38.05H126.643V30H106.623V20.27H139.593V51ZM159.791 51H146.841V0.109996H159.791V51Z" fill="#091922"/><path d="M206.879 51H167.679V0.109996H205.339C215.909 0.109996 223.049 4.59 223.049 13.48C223.049 19.36 220.319 22.23 218.359 23.63C221.439 25.38 224.169 29.3 224.169 34.06C224.169 44.91 216.959 51 206.879 51ZM206.599 30H186.789V20.27H205.689C208.559 20.27 209.889 18.8 209.889 16.63C209.889 14.46 208.559 12.92 205.689 12.92H180.559V38.05H206.599C209.469 38.05 210.869 36.44 210.869 33.99C210.869 31.54 209.469 30 206.599 30ZM283.209 51H254.719C239.949 51 229.099 39.8 229.099 25.03C229.099 10.05 239.949 0.109996 254.719 0.109996H283.209V12.99H254.719C247.439 12.99 242.049 18.38 242.049 25.66C242.049 32.94 247.299 38.05 254.719 38.05H283.209V51Z" fill="#65CEFC"/></svg>
